<svg width="500" height="52" viewBox="0 0 500 52" fill="none" xmlns="http://www.w3.org/2000/svg">
<path d="M0 0H500V52H0V0Z" fill="white"/>
<path d="M39.476 27.8213C43.6253 26.2056 46.7131 21.9438 46.7131 17.7055C46.7131 13.8418 44.1078 11.4768 40.7304 11.4768C35.5679 11.4768 30.3572 16.8625 30.3572 22.2717C30.3572 25.948 32.8661 28.4535 36.364 28.4535C37.1842 28.4535 37.9803 28.3365 38.7523 28.1023C38.6075 29.5073 38.6075 29.6244 38.6075 30.0693C38.6075 30.7483 38.6075 32.5045 40.5374 32.5045C43.4082 32.5045 44.4696 28.1257 44.4696 27.9852C44.4696 27.8447 44.3731 27.7511 44.2525 27.7511C44.1078 27.7511 44.0595 27.8681 43.9871 28.1257C43.4564 29.6009 42.202 30.4439 41.1405 30.4439C39.9102 30.4439 39.5966 29.6244 39.476 27.8213ZM35.1337 27.7042C33.2279 27.072 32.3112 25.1284 32.3112 22.9742C32.3112 21.335 32.9384 18.2207 34.5306 15.8556C36.3158 13.1862 38.704 11.992 40.5857 11.992C43.0946 11.992 44.7832 13.9589 44.7832 17.003C44.7832 18.7358 43.9389 24.543 39.4036 27.1188C39.283 25.9246 38.9453 24.5196 37.3531 24.5196C36.0504 24.5196 34.9407 25.7841 34.9407 26.9315C34.9407 27.1891 35.0372 27.5403 35.1337 27.7042ZM38.8005 27.4232C37.9321 27.7979 37.1842 27.9384 36.5088 27.9384C36.2675 27.9384 35.4232 27.9384 35.4232 26.9081C35.4232 26.0651 36.2675 24.9879 37.3531 24.9879C38.5593 24.9879 38.8246 25.7841 38.8246 26.9549C38.8246 27.0954 38.8246 27.2827 38.8005 27.4232Z" fill="black"/>
<path d="M51.4615 25.2614H53.0376C53.3432 25.2614 53.5362 25.2614 53.5362 24.9648C53.5362 24.7463 53.3271 24.7463 53.0537 24.7463H51.5902L52.1691 22.5295C52.2335 22.2954 52.2335 22.2173 52.2335 22.2017C52.2335 21.8739 51.9761 21.7178 51.7027 21.7178C51.1559 21.7178 51.0434 22.1393 50.8665 22.8418L50.3679 24.7463H48.824C48.5184 24.7463 48.3093 24.7463 48.3093 25.0429C48.3093 25.2614 48.5184 25.2614 48.7918 25.2614H50.2392L49.2743 29.008C49.1778 29.3983 49.033 29.9447 49.033 30.1632C49.033 31.0999 49.8211 31.6306 50.6735 31.6306C52.3943 31.6306 53.3753 29.4295 53.3753 29.2422C53.3753 29.0705 53.2306 29.0392 53.1341 29.0392C52.9572 29.0392 52.9411 29.1017 52.8285 29.3358C52.5069 30.0852 51.7027 31.1935 50.7217 31.1935C50.384 31.1935 50.191 30.975 50.191 30.4598C50.191 30.1632 50.2392 29.9915 50.2875 29.7886L51.4615 25.2614Z" fill="black"/>
<path d="M60.3823 25.527C60.2376 25.2616 59.7712 24.5903 58.7902 24.5903C56.8763 24.5903 54.7695 26.7602 54.7695 29.0706C54.7695 30.6942 55.8471 31.6308 57.0854 31.6308C58.1147 31.6308 58.9992 30.8346 59.2887 30.5224C59.5782 31.5996 60.6718 31.6308 60.8648 31.6308C61.6046 31.6308 61.9745 31.0376 62.1032 30.7722C62.4248 30.2102 62.65 29.3048 62.65 29.2423C62.65 29.1487 62.5856 29.0394 62.3927 29.0394C62.1997 29.0394 62.1675 29.1331 62.071 29.5233C61.8459 30.3819 61.5403 31.1937 60.9131 31.1937C60.5432 31.1937 60.3984 30.8971 60.3984 30.46C60.3984 30.1946 60.5432 29.6638 60.6397 29.2736C60.7362 28.8833 60.9774 27.9467 61.0417 27.6657L61.3634 26.4792C61.4438 26.1046 61.6207 25.4489 61.6207 25.3709C61.6207 25.0118 61.3151 24.8869 61.1061 24.8869C60.8648 24.8869 60.4628 25.043 60.3823 25.527ZM59.2887 29.7887C58.4846 30.8659 57.6483 31.1937 57.1337 31.1937C56.3939 31.1937 56.024 30.538 56.024 29.7263C56.024 28.9926 56.4582 27.3222 56.812 26.6353C57.2784 25.6831 58.0665 25.0274 58.8063 25.0274C59.8516 25.0274 60.1572 26.167 60.1572 26.3544C60.1572 26.4168 59.7551 27.9467 59.6586 28.3525C59.4496 29.0862 59.4496 29.1175 59.2887 29.7887Z" fill="black"/>
<path d="M66.2579 29.3204C66.4348 28.6491 66.6117 27.9779 66.7726 27.291C66.7887 27.2598 66.9012 26.8071 66.9173 26.729C66.9656 26.5885 67.3676 25.9485 67.7858 25.5582C68.3004 25.1055 68.8472 25.0274 69.1367 25.0274C69.3136 25.0274 69.6031 25.043 69.8283 25.2304C69.1367 25.3709 69.0402 25.9485 69.0402 26.089C69.0402 26.4324 69.3136 26.6666 69.6674 26.6666C70.1017 26.6666 70.5841 26.3231 70.5841 25.6987C70.5841 25.1367 70.0856 24.5903 69.1689 24.5903C68.0753 24.5903 67.3355 25.2928 66.9977 25.7143C66.6761 24.5903 65.5825 24.5903 65.4216 24.5903C64.8427 24.5903 64.4406 24.9494 64.1833 25.4333C63.8134 26.1358 63.6365 26.9319 63.6365 26.9788C63.6365 27.1193 63.7491 27.1817 63.8777 27.1817C64.0868 27.1817 64.1029 27.1193 64.2154 26.7134C64.4084 25.9485 64.6979 25.0274 65.3734 25.0274C65.7915 25.0274 65.888 25.4177 65.888 25.7611C65.888 26.0421 65.8076 26.3387 65.679 26.8539C65.6468 26.9788 65.4056 27.8998 65.3412 28.1184L64.7462 30.46C64.6818 30.6942 64.5853 31.0844 64.5853 31.1469C64.5853 31.5059 64.8909 31.6308 65.1 31.6308C65.6629 31.6308 65.7755 31.1937 65.9041 30.6629L66.2579 29.3204Z" fill="black"/>
<path d="M79.3167 25.7143C79.381 25.4801 79.381 25.3865 79.381 25.3709C79.381 25.0118 79.0755 24.8869 78.8664 24.8869C78.4965 24.8869 78.207 25.1679 78.1427 25.4958C78.014 25.2616 77.5315 24.5903 76.5666 24.5903C74.6528 24.5903 72.562 26.6666 72.562 28.9457C72.562 30.6317 73.7039 31.4747 74.894 31.4747C75.6338 31.4747 76.2932 31.0844 76.8239 30.6317L76.4701 32.0367C76.2932 32.6923 76.1806 33.145 75.5534 33.6602C74.8779 34.2222 74.2668 34.2222 73.8647 34.2222C73.4627 34.2222 73.0767 34.2066 72.6907 34.1285C73.0445 33.9412 73.2053 33.6134 73.2053 33.348C73.2053 32.9733 72.9158 32.7704 72.5781 32.7704C72.1761 32.7704 71.6775 33.0826 71.6775 33.707C71.6775 34.5968 72.9319 34.6593 73.8969 34.6593C76.1806 34.6593 77.3225 33.4729 77.5637 32.5206L79.3167 25.7143ZM77.1456 29.4141C77.033 29.8512 76.6792 30.1634 76.3414 30.46C76.1967 30.5693 75.5856 31.0376 74.9262 31.0376C74.2829 31.0376 73.8165 30.5224 73.8165 29.5858C73.8165 28.9301 74.2185 27.2286 74.6528 26.4324C75.1674 25.5426 75.9233 25.0274 76.5666 25.0274C77.6441 25.0274 77.9336 26.1826 77.9336 26.3231L77.8854 26.5417L77.1456 29.4141Z" fill="black"/>
<path d="M83.2812 27.9154C83.635 27.9154 84.8412 27.8998 85.6936 27.6032C87.0928 27.1349 87.141 26.1982 87.141 25.9641C87.141 25.0899 86.2887 24.5903 85.2433 24.5903C83.426 24.5903 80.8367 25.9797 80.8367 28.7428C80.8367 30.3351 81.8338 31.6308 83.6029 31.6308C86.1117 31.6308 87.4627 30.0697 87.4627 29.8512C87.4627 29.7107 87.3019 29.6014 87.2054 29.6014C87.1089 29.6014 87.0606 29.6482 86.9802 29.7419C85.7097 31.1937 83.9084 31.1937 83.635 31.1937C82.461 31.1937 82.1072 30.2258 82.1072 29.3516C82.1072 28.8833 82.2519 28.1808 82.3163 27.9154H83.2812ZM82.4449 27.4783C82.9596 25.5738 84.4231 25.0274 85.2433 25.0274C85.8866 25.0274 86.4977 25.3396 86.4977 25.9641C86.4977 27.4783 83.8602 27.4783 83.1847 27.4783H82.4449Z" fill="black"/>
<path d="M91.5299 25.2614H93.106C93.4115 25.2614 93.6045 25.2614 93.6045 24.9648C93.6045 24.7463 93.3954 24.7463 93.122 24.7463H91.6585L92.2375 22.5295C92.3018 22.2954 92.3018 22.2173 92.3018 22.2017C92.3018 21.8739 92.0445 21.7178 91.7711 21.7178C91.2243 21.7178 91.1117 22.1393 90.9348 22.8418L90.4363 24.7463H88.8923C88.5868 24.7463 88.3777 24.7463 88.3777 25.0429C88.3777 25.2614 88.5868 25.2614 88.8602 25.2614H90.3076L89.3426 29.008C89.2461 29.3983 89.1014 29.9447 89.1014 30.1632C89.1014 31.0999 89.8894 31.6306 90.7418 31.6306C92.4627 31.6306 93.4437 29.4295 93.4437 29.2422C93.4437 29.0705 93.2989 29.0392 93.2024 29.0392C93.0255 29.0392 93.0095 29.1017 92.8969 29.3358C92.5752 30.0852 91.7711 31.1935 90.7901 31.1935C90.4523 31.1935 90.2593 30.975 90.2593 30.4598C90.2593 30.1632 90.3076 29.9915 90.3558 29.7886L91.5299 25.2614Z" fill="black"/>
<path d="M102.991 33.6524C102.991 33.5822 102.991 33.5353 102.581 33.1373C100.169 30.7722 98.8181 26.9086 98.8181 22.1317C98.8181 17.5889 99.9519 13.6784 102.75 10.9153C102.991 10.7046 102.991 10.6577 102.991 10.5875C102.991 10.447 102.871 10.4001 102.774 10.4001C102.461 10.4001 100.483 12.0861 99.3005 14.3809C98.0702 16.7459 97.5154 19.2515 97.5154 22.1317C97.5154 24.2157 97.8531 27.0022 99.1076 29.5078C100.531 32.3177 102.509 33.8398 102.774 33.8398C102.871 33.8398 102.991 33.7929 102.991 33.6524Z" fill="black"/>
<path d="M109.838 23.2788C110.248 23.349 110.899 23.4895 111.044 23.513C111.357 23.6066 112.443 23.9813 112.443 25.1053C112.443 25.8312 111.767 27.7279 108.969 27.7279C108.462 27.7279 106.653 27.6576 106.171 26.3697C107.136 26.4868 107.618 25.7609 107.618 25.2458C107.618 24.754 107.28 24.4964 106.798 24.4964C106.267 24.4964 105.568 24.8945 105.568 25.9482C105.568 27.3298 107.015 28.1962 108.945 28.1962C112.612 28.1962 113.697 25.5736 113.697 24.3559C113.697 24.0047 113.697 23.349 112.925 22.5997C112.322 22.0377 111.743 21.9207 110.441 21.6631C109.789 21.5226 108.752 21.3118 108.752 20.2581C108.752 19.7898 109.186 18.1038 111.478 18.1038C112.491 18.1038 113.48 18.4785 113.721 19.3215C112.66 19.3215 112.612 20.2113 112.612 20.2347C112.612 20.7264 113.07 20.8669 113.287 20.8669C113.625 20.8669 114.3 20.6094 114.3 19.6259C114.3 18.6424 113.384 17.6355 111.502 17.6355C108.342 17.6355 107.498 20.0474 107.498 21.0074C107.498 22.7871 109.283 23.1617 109.838 23.2788Z" fill="black"/>
<path d="M119.018 25.2614H120.594C120.9 25.2614 121.093 25.2614 121.093 24.9648C121.093 24.7463 120.883 24.7463 120.61 24.7463H119.147L119.726 22.5295C119.79 22.2954 119.79 22.2173 119.79 22.2017C119.79 21.8739 119.533 21.7178 119.259 21.7178C118.712 21.7178 118.6 22.1393 118.423 22.8418L117.924 24.7463H116.38C116.075 24.7463 115.866 24.7463 115.866 25.0429C115.866 25.2614 116.075 25.2614 116.348 25.2614H117.796L116.831 29.008C116.734 29.3983 116.589 29.9447 116.589 30.1632C116.589 31.0999 117.377 31.6306 118.23 31.6306C119.951 31.6306 120.932 29.4295 120.932 29.2422C120.932 29.0705 120.787 29.0392 120.69 29.0392C120.514 29.0392 120.497 29.1017 120.385 29.3358C120.063 30.0852 119.259 31.1935 118.278 31.1935C117.94 31.1935 117.747 30.975 117.747 30.4598C117.747 30.1632 117.796 29.9915 117.844 29.7886L119.018 25.2614Z" fill="black"/>
<path d="M127.344 28.0557C127.344 26.6976 126.886 25.6907 125.896 25.6907C125.125 25.6907 124.739 26.2995 124.739 26.8147C124.739 27.3298 125.1 27.962 125.921 27.962C126.234 27.962 126.5 27.8684 126.717 27.6576C126.765 27.6108 126.789 27.6108 126.813 27.6108C126.861 27.6108 126.861 27.9386 126.861 28.0557C126.861 28.8284 126.717 30.3505 125.317 31.8725C125.052 32.1535 125.052 32.2004 125.052 32.2472C125.052 32.3643 125.173 32.4814 125.293 32.4814C125.486 32.4814 127.344 30.7486 127.344 28.0557Z" fill="black"/>
<path d="M140.483 25.1755C140.362 25.5736 140.362 25.6204 140.025 26.0653C139.494 26.721 138.433 27.7279 137.299 27.7279C136.31 27.7279 135.755 26.8615 135.755 25.4799C135.755 24.192 136.503 21.5694 136.961 20.5859C137.781 18.9468 138.915 18.1038 139.856 18.1038C141.448 18.1038 141.762 20.0239 141.762 20.2113C141.762 20.2347 141.689 20.5391 141.665 20.5859L140.483 25.1755ZM142.027 19.181C141.762 18.5721 141.11 17.6355 139.856 17.6355C137.13 17.6355 134.187 21.0543 134.187 24.5199C134.187 26.8381 135.586 28.1962 137.226 28.1962C138.553 28.1962 139.687 27.1893 140.362 26.4166C140.604 27.7981 141.738 28.1962 142.461 28.1962C143.185 28.1962 143.764 27.7747 144.198 26.9317C144.584 26.1356 144.922 24.7072 144.922 24.6135C144.922 24.4964 144.825 24.4028 144.681 24.4028C144.464 24.4028 144.439 24.5199 144.343 24.8711C143.981 26.2527 143.523 27.7279 142.534 27.7279C141.834 27.7279 141.786 27.1191 141.786 26.6507C141.786 26.1122 141.858 25.8546 142.075 24.9413C142.244 24.3559 142.365 23.8408 142.558 23.1617C143.45 19.6493 143.667 18.8063 143.667 18.6658C143.667 18.338 143.402 18.0804 143.04 18.0804C142.268 18.0804 142.075 18.9 142.027 19.181Z" fill="black"/>
<path d="M149.175 25.2614H150.751C151.057 25.2614 151.25 25.2614 151.25 24.9648C151.25 24.7463 151.041 24.7463 150.768 24.7463H149.304L149.883 22.5295C149.947 22.2954 149.947 22.2173 149.947 22.2017C149.947 21.8739 149.69 21.7178 149.417 21.7178C148.87 21.7178 148.757 22.1393 148.58 22.8418L148.082 24.7463H146.538C146.232 24.7463 146.023 24.7463 146.023 25.0429C146.023 25.2614 146.232 25.2614 146.506 25.2614H147.953L146.988 29.008C146.892 29.3983 146.747 29.9447 146.747 30.1632C146.747 31.0999 147.535 31.6306 148.387 31.6306C150.108 31.6306 151.089 29.4295 151.089 29.2422C151.089 29.0705 150.944 29.0392 150.848 29.0392C150.671 29.0392 150.655 29.1017 150.542 29.3358C150.221 30.0852 149.417 31.1935 148.436 31.1935C148.098 31.1935 147.905 30.975 147.905 30.4598C147.905 30.1632 147.953 29.9915 148.001 29.7886L149.175 25.2614Z" fill="black"/>
<path d="M159.6 22.1317C159.6 20.352 159.359 17.4484 158.008 14.7321C156.584 11.9222 154.606 10.4001 154.341 10.4001C154.244 10.4001 154.124 10.447 154.124 10.5875C154.124 10.6577 154.124 10.7046 154.534 11.1026C156.946 13.4677 158.297 17.3313 158.297 22.1082C158.297 26.651 157.163 30.5615 154.365 33.3246C154.124 33.5353 154.124 33.5822 154.124 33.6524C154.124 33.7929 154.244 33.8398 154.341 33.8398C154.655 33.8398 156.633 32.1538 157.815 29.859C159.045 27.4705 159.6 24.9416 159.6 22.1317Z" fill="black"/>
<path d="M184.967 20.3752C185.305 20.3752 185.739 20.3752 185.739 19.9537C185.739 19.5088 185.329 19.5088 184.967 19.5088H170.758C170.421 19.5088 169.986 19.5088 169.986 19.9303C169.986 20.3752 170.396 20.3752 170.758 20.3752H184.967ZM184.967 24.7306C185.305 24.7306 185.739 24.7306 185.739 24.3091C185.739 23.8642 185.329 23.8642 184.967 23.8642H170.758C170.421 23.8642 169.986 23.8642 169.986 24.2857C169.986 24.7306 170.396 24.7306 170.758 24.7306H184.967Z" fill="black"/>
<path d="M203.141 18.3848C202.393 18.5253 202.007 19.0405 202.007 19.5556C202.007 20.1176 202.465 20.3049 202.803 20.3049C203.479 20.3049 204.033 19.743 204.033 19.0405C204.033 18.2912 203.286 17.6355 202.079 17.6355C201.114 17.6355 200.005 18.057 198.991 19.4854C198.823 18.2443 197.858 17.6355 196.893 17.6355C195.952 17.6355 195.469 18.338 195.18 18.8531C194.77 19.6961 194.408 21.1011 194.408 21.2182C194.408 21.3118 194.504 21.4289 194.673 21.4289C194.866 21.4289 194.89 21.4055 195.035 20.8669C195.397 19.462 195.855 18.1038 196.82 18.1038C197.399 18.1038 197.568 18.5019 197.568 19.181C197.568 19.6961 197.327 20.6094 197.158 21.3353L196.483 23.8642C196.386 24.3091 196.121 25.3628 196 25.7843C195.831 26.3932 195.566 27.4937 195.566 27.6108C195.566 27.9386 195.831 28.1962 196.193 28.1962C196.458 28.1962 196.917 28.0323 197.062 27.564C197.134 27.3766 198.027 23.8408 198.171 23.3022C198.292 22.7871 198.437 22.2953 198.557 21.7802C198.654 21.4523 198.75 21.0777 198.823 20.7733C198.895 20.5625 199.546 19.4151 200.149 18.9C200.439 18.6424 201.066 18.1038 202.055 18.1038C202.441 18.1038 202.827 18.1741 203.141 18.3848Z" fill="black"/>
<path d="M207.956 25.2614H209.532C209.837 25.2614 210.03 25.2614 210.03 24.9648C210.03 24.7463 209.821 24.7463 209.548 24.7463H208.084L208.663 22.5295C208.728 22.2954 208.728 22.2173 208.728 22.2017C208.728 21.8739 208.47 21.7178 208.197 21.7178C207.65 21.7178 207.537 22.1393 207.361 22.8418L206.862 24.7463H205.318C205.013 24.7463 204.803 24.7463 204.803 25.0429C204.803 25.2614 205.013 25.2614 205.286 25.2614H206.733L205.768 29.008C205.672 29.3983 205.527 29.9447 205.527 30.1632C205.527 31.0999 206.315 31.6306 207.168 31.6306C208.888 31.6306 209.869 29.4295 209.869 29.2422C209.869 29.0705 209.725 29.0392 209.628 29.0392C209.451 29.0392 209.435 29.1017 209.323 29.3358C209.001 30.0852 208.197 31.1935 207.216 31.1935C206.878 31.1935 206.685 30.975 206.685 30.4598C206.685 30.1632 206.733 29.9915 206.782 29.7886L207.956 25.2614Z" fill="black"/>
<path d="M219.418 33.6524C219.418 33.5822 219.418 33.5353 219.007 33.1373C216.595 30.7722 215.244 26.9086 215.244 22.1317C215.244 17.5889 216.378 13.6784 219.176 10.9153C219.418 10.7046 219.418 10.6577 219.418 10.5875C219.418 10.447 219.297 10.4001 219.2 10.4001C218.887 10.4001 216.909 12.0861 215.727 14.3809C214.496 16.7459 213.941 19.2515 213.941 22.1317C213.941 24.2157 214.279 27.0022 215.534 29.5078C216.957 32.3177 218.935 33.8398 219.2 33.8398C219.297 33.8398 219.418 33.7929 219.418 33.6524Z" fill="black"/>
<path d="M226.264 23.2788C226.674 23.349 227.325 23.4895 227.47 23.513C227.783 23.6066 228.869 23.9813 228.869 25.1053C228.869 25.8312 228.193 27.7279 225.395 27.7279C224.889 27.7279 223.079 27.6576 222.597 26.3697C223.562 26.4868 224.044 25.7609 224.044 25.2458C224.044 24.754 223.706 24.4964 223.224 24.4964C222.693 24.4964 221.994 24.8945 221.994 25.9482C221.994 27.3298 223.441 28.1962 225.371 28.1962C229.038 28.1962 230.123 25.5736 230.123 24.3559C230.123 24.0047 230.123 23.349 229.351 22.5997C228.748 22.0377 228.169 21.9207 226.867 21.6631C226.215 21.5226 225.178 21.3118 225.178 20.2581C225.178 19.7898 225.612 18.1038 227.904 18.1038C228.917 18.1038 229.906 18.4785 230.148 19.3215C229.086 19.3215 229.038 20.2113 229.038 20.2347C229.038 20.7264 229.496 20.8669 229.713 20.8669C230.051 20.8669 230.726 20.6094 230.726 19.6259C230.726 18.6424 229.81 17.6355 227.928 17.6355C224.768 17.6355 223.924 20.0474 223.924 21.0074C223.924 22.7871 225.709 23.1617 226.264 23.2788Z" fill="black"/>
<path d="M235.444 25.2614H237.02C237.326 25.2614 237.519 25.2614 237.519 24.9648C237.519 24.7463 237.31 24.7463 237.036 24.7463H235.573L236.152 22.5295C236.216 22.2954 236.216 22.2173 236.216 22.2017C236.216 21.8739 235.959 21.7178 235.685 21.7178C235.139 21.7178 235.026 22.1393 234.849 22.8418L234.351 24.7463H232.807C232.501 24.7463 232.292 24.7463 232.292 25.0429C232.292 25.2614 232.501 25.2614 232.774 25.2614H234.222L233.257 29.008C233.16 29.3983 233.016 29.9447 233.016 30.1632C233.016 31.0999 233.804 31.6306 234.656 31.6306C236.377 31.6306 237.358 29.4295 237.358 29.2422C237.358 29.0705 237.213 29.0392 237.117 29.0392C236.94 29.0392 236.924 29.1017 236.811 29.3358C236.49 30.0852 235.685 31.1935 234.704 31.1935C234.367 31.1935 234.174 30.975 234.174 30.4598C234.174 30.1632 234.222 29.9915 234.27 29.7886L235.444 25.2614Z" fill="black"/>
<path d="M243.77 28.0557C243.77 26.6976 243.311 25.6907 242.322 25.6907C241.55 25.6907 241.164 26.2995 241.164 26.8147C241.164 27.3298 241.526 27.962 242.346 27.962C242.66 27.962 242.925 27.8684 243.142 27.6576C243.191 27.6108 243.215 27.6108 243.239 27.6108C243.287 27.6108 243.287 27.9386 243.287 28.0557C243.287 28.8284 243.142 30.3505 241.743 31.8725C241.478 32.1535 241.478 32.2004 241.478 32.2472C241.478 32.3643 241.599 32.4814 241.719 32.4814C241.912 32.4814 243.77 30.7486 243.77 28.0557Z" fill="black"/>
<path d="M256.909 25.1755C256.788 25.5736 256.788 25.6204 256.451 26.0653C255.92 26.721 254.858 27.7279 253.725 27.7279C252.735 27.7279 252.181 26.8615 252.181 25.4799C252.181 24.192 252.928 21.5694 253.387 20.5859C254.207 18.9468 255.341 18.1038 256.282 18.1038C257.874 18.1038 258.187 20.0239 258.187 20.2113C258.187 20.2347 258.115 20.5391 258.091 20.5859L256.909 25.1755ZM258.453 19.181C258.187 18.5721 257.536 17.6355 256.282 17.6355C253.556 17.6355 250.613 21.0543 250.613 24.5199C250.613 26.8381 252.012 28.1962 253.652 28.1962C254.979 28.1962 256.113 27.1893 256.788 26.4166C257.029 27.7981 258.163 28.1962 258.887 28.1962C259.611 28.1962 260.19 27.7747 260.624 26.9317C261.01 26.1356 261.348 24.7072 261.348 24.6135C261.348 24.4964 261.251 24.4028 261.106 24.4028C260.889 24.4028 260.865 24.5199 260.769 24.8711C260.407 26.2527 259.948 27.7279 258.959 27.7279C258.26 27.7279 258.212 27.1191 258.212 26.6507C258.212 26.1122 258.284 25.8546 258.501 24.9413C258.67 24.3559 258.791 23.8408 258.984 23.1617C259.876 19.6493 260.093 18.8063 260.093 18.6658C260.093 18.338 259.828 18.0804 259.466 18.0804C258.694 18.0804 258.501 18.9 258.453 19.181Z" fill="black"/>
<path d="M265.601 25.2614H267.177C267.483 25.2614 267.676 25.2614 267.676 24.9648C267.676 24.7463 267.467 24.7463 267.193 24.7463H265.73L266.309 22.5295C266.373 22.2954 266.373 22.2173 266.373 22.2017C266.373 21.8739 266.116 21.7178 265.842 21.7178C265.296 21.7178 265.183 22.1393 265.006 22.8418L264.508 24.7463H262.964C262.658 24.7463 262.449 24.7463 262.449 25.0429C262.449 25.2614 262.658 25.2614 262.931 25.2614H264.379L263.414 29.008C263.317 29.3983 263.173 29.9447 263.173 30.1632C263.173 31.0999 263.961 31.6306 264.813 31.6306C266.534 31.6306 267.515 29.4295 267.515 29.2422C267.515 29.0705 267.37 29.0392 267.274 29.0392C267.097 29.0392 267.081 29.1017 266.968 29.3358C266.647 30.0852 265.842 31.1935 264.861 31.1935C264.524 31.1935 264.331 30.975 264.331 30.4598C264.331 30.1632 264.379 29.9915 264.427 29.7886L265.601 25.2614Z" fill="black"/>
<path d="M276.026 22.1317C276.026 20.352 275.784 17.4484 274.433 14.7321C273.01 11.9222 271.032 10.4001 270.767 10.4001C270.67 10.4001 270.55 10.447 270.55 10.5875C270.55 10.6577 270.55 10.7046 270.96 11.1026C273.372 13.4677 274.723 17.3313 274.723 22.1082C274.723 26.651 273.589 30.5615 270.791 33.3246C270.55 33.5353 270.55 33.5822 270.55 33.6524C270.55 33.7929 270.67 33.8398 270.767 33.8398C271.08 33.8398 273.058 32.1538 274.241 29.859C275.471 27.4705 276.026 24.9416 276.026 22.1317Z" fill="black"/>
<path d="M293.395 22.553H300.053C300.391 22.553 300.825 22.553 300.825 22.1315C300.825 21.6866 300.415 21.6866 300.053 21.6866H293.395V15.2237C293.395 14.8959 293.395 14.4744 292.961 14.4744C292.503 14.4744 292.503 14.8724 292.503 15.2237V21.6866H285.844C285.507 21.6866 285.073 21.6866 285.073 22.108C285.073 22.553 285.483 22.553 285.844 22.553H292.503V29.0158C292.503 29.3436 292.503 29.7651 292.937 29.7651C293.395 29.7651 293.395 29.3671 293.395 29.0158V22.553Z" fill="black"/>
<path d="M316.621 25.1053C316.573 23.9579 316.525 22.1548 315.608 20.0474C315.125 18.8766 314.305 17.6355 312.544 17.6355C309.577 17.6355 307.961 21.3118 307.961 21.9207C307.961 22.1314 308.13 22.1314 308.202 22.1314C308.419 22.1314 308.419 22.0846 308.54 21.7802C309.046 20.3284 310.59 19.181 312.255 19.181C315.608 19.181 316.09 22.8105 316.09 25.1287C316.09 26.6039 315.922 27.0956 315.777 27.564C315.318 29.0158 314.522 31.9194 314.522 32.575C314.522 32.7624 314.595 32.9731 314.788 32.9731C315.15 32.9731 315.367 32.2004 315.632 31.2637C316.211 29.2031 316.356 28.1728 316.476 27.2361C316.549 26.6741 317.924 22.8105 319.83 19.1341C319.998 18.7595 320.336 18.1272 320.336 18.057C320.336 18.0336 320.312 17.8697 320.095 17.8697C320.047 17.8697 319.926 17.8697 319.878 17.9633C319.83 18.0102 318.985 19.6025 318.262 21.1948C317.9 21.9909 317.417 23.0446 316.621 25.1053Z" fill="black"/>
<path d="M342.384 22.2719C342.384 20.0942 342.384 19.4385 341.829 18.6892C341.13 17.776 339.996 17.6355 339.176 17.6355C337.173 17.6355 336.16 19.0405 335.774 19.9537C335.437 18.1507 334.134 17.6355 332.614 17.6355C330.274 17.6355 329.357 19.579 329.164 20.0474H329.14V17.6355L325.859 17.8931V18.5721C327.5 18.5721 327.693 18.7361 327.693 19.8835V26.2292C327.693 27.283 327.427 27.283 325.859 27.283V27.962C326.487 27.9152 327.789 27.9152 328.465 27.9152C329.164 27.9152 330.467 27.9152 331.094 27.962V27.283C329.55 27.283 329.261 27.283 329.261 26.2292V21.8738C329.261 19.4151 330.925 18.1038 332.421 18.1038C333.917 18.1038 334.254 19.298 334.254 20.7264V26.2292C334.254 27.283 333.989 27.283 332.421 27.283V27.962C333.048 27.9152 334.351 27.9152 335.026 27.9152C335.726 27.9152 337.029 27.9152 337.656 27.962V27.283C336.112 27.283 335.823 27.283 335.823 26.2292V21.8738C335.823 19.4151 337.487 18.1038 338.983 18.1038C340.478 18.1038 340.816 19.298 340.816 20.7264V26.2292C340.816 27.283 340.551 27.283 338.983 27.283V27.962C339.61 27.9152 340.913 27.9152 341.588 27.9152C342.288 27.9152 343.59 27.9152 344.218 27.962V27.283C343.011 27.283 342.408 27.283 342.384 26.5805V22.2719Z" fill="black"/>
<path d="M354.083 21.7101C354.083 20.4456 354.083 19.5089 353.022 18.5957C352.178 17.8464 351.092 17.5186 350.031 17.5186C348.052 17.5186 346.533 18.783 346.533 20.3051C346.533 20.9842 346.991 21.312 347.546 21.312C348.125 21.312 348.535 20.9139 348.535 20.3519C348.535 19.3918 347.666 19.3918 347.305 19.3918C347.859 18.4084 349.017 17.9869 349.982 17.9869C351.092 17.9869 352.515 18.8767 352.515 20.9842V21.9208C347.666 21.991 345.833 23.958 345.833 25.7611C345.833 27.6109 348.052 28.1963 349.524 28.1963C351.116 28.1963 352.202 27.2597 352.66 26.1357C352.757 27.2363 353.504 28.0793 354.542 28.0793C355.048 28.0793 356.447 27.7514 356.447 25.8781V24.5668H355.917V25.8781C355.917 27.2129 355.338 27.4002 355 27.4002C354.083 27.4002 354.083 26.1591 354.083 25.8079V21.7101ZM352.515 24.6605C352.515 26.9553 350.754 27.728 349.717 27.728C348.535 27.728 347.546 26.885 347.546 25.7611C347.546 22.6701 351.647 22.3891 352.515 22.3423V24.6605Z" fill="black"/>
<path d="M363.337 22.436C364.036 21.5462 365.049 20.2817 365.508 19.79C366.497 18.7129 367.631 18.5489 368.403 18.5489V17.8699C367.365 17.9167 367.317 17.9167 366.376 17.9167C365.46 17.9167 365.411 17.9167 364.205 17.8699V18.5489C364.519 18.5958 364.905 18.7363 364.905 19.2748C364.905 19.6729 364.688 19.9305 364.543 20.1178L362.999 22.0145L361.117 19.6027C361.045 19.509 360.9 19.2983 360.9 19.1343C360.9 18.9938 361.021 18.5724 361.745 18.5489V17.8699C361.141 17.9167 359.911 17.9167 359.26 17.9167C358.464 17.9167 358.415 17.9167 356.944 17.8699V18.5489C358.174 18.5489 358.633 18.5958 359.139 19.228L361.962 22.8107C362.01 22.8575 362.106 22.998 362.106 23.0683C362.106 23.1385 360.225 25.4333 359.983 25.7377C358.922 27.0022 357.861 27.2598 356.823 27.2832V27.9622C357.74 27.9154 357.788 27.9154 358.826 27.9154C359.742 27.9154 359.79 27.9154 360.997 27.9622V27.2832C360.418 27.2129 360.321 26.8617 360.321 26.5339C360.321 26.1592 360.49 25.9719 360.731 25.6675C361.093 25.1757 361.889 24.2157 362.468 23.4898L364.446 25.9953C364.856 26.5104 364.856 26.5573 364.856 26.6978C364.856 26.8851 364.663 27.2598 364.012 27.2832V27.9622C364.639 27.9154 365.821 27.9154 366.497 27.9154C367.293 27.9154 367.341 27.9154 368.789 27.9622V27.2832C367.51 27.2832 367.076 27.2363 366.497 26.487L363.337 22.436Z" fill="black"/>
<path d="M348.834 36.0641C348.69 35.7987 348.223 35.1274 347.242 35.1274C345.328 35.1274 343.222 37.2973 343.222 39.6077C343.222 41.2313 344.299 42.1679 345.538 42.1679C346.567 42.1679 347.451 41.3718 347.741 41.0595C348.03 42.1367 349.124 42.1679 349.317 42.1679C350.057 42.1679 350.427 41.5747 350.555 41.3093C350.877 40.7473 351.102 39.8419 351.102 39.7795C351.102 39.6858 351.038 39.5765 350.845 39.5765C350.652 39.5765 350.62 39.6702 350.523 40.0605C350.298 40.919 349.992 41.7308 349.365 41.7308C348.995 41.7308 348.851 41.4342 348.851 40.9971C348.851 40.7317 348.995 40.2009 349.092 39.8107C349.188 39.4204 349.43 38.4838 349.494 38.2028L349.816 37.0163C349.896 36.6417 350.073 35.986 350.073 35.908C350.073 35.5489 349.767 35.424 349.558 35.424C349.317 35.424 348.915 35.5802 348.834 36.0641ZM347.741 40.3258C346.937 41.403 346.1 41.7308 345.586 41.7308C344.846 41.7308 344.476 41.0752 344.476 40.2634C344.476 39.5297 344.91 37.8593 345.264 37.1725C345.731 36.2202 346.519 35.5645 347.258 35.5645C348.304 35.5645 348.609 36.7041 348.609 36.8915C348.609 36.9539 348.207 38.4838 348.111 38.8896C347.902 39.6233 347.902 39.6546 347.741 40.3258Z" fill="black"/>
<path d="M383.346 27.8213C387.495 26.2056 390.583 21.9438 390.583 17.7055C390.583 13.8418 387.978 11.4768 384.6 11.4768C379.438 11.4768 374.227 16.8625 374.227 22.2717C374.227 25.948 376.736 28.4535 380.234 28.4535C381.054 28.4535 381.85 28.3365 382.622 28.1023C382.477 29.5073 382.477 29.6244 382.477 30.0693C382.477 30.7483 382.477 32.5045 384.407 32.5045C387.278 32.5045 388.339 28.1257 388.339 27.9852C388.339 27.8447 388.243 27.7511 388.122 27.7511C387.978 27.7511 387.929 27.8681 387.857 28.1257C387.326 29.6009 386.072 30.4439 385.01 30.4439C383.78 30.4439 383.466 29.6244 383.346 27.8213ZM379.004 27.7042C377.098 27.072 376.181 25.1284 376.181 22.9742C376.181 21.335 376.808 18.2207 378.4 15.8556C380.186 13.1862 382.574 11.992 384.456 11.992C386.964 11.992 388.653 13.9589 388.653 17.003C388.653 18.7358 387.809 24.543 383.273 27.1188C383.153 25.9246 382.815 24.5196 381.223 24.5196C379.92 24.5196 378.811 25.7841 378.811 26.9315C378.811 27.1891 378.907 27.5403 379.004 27.7042ZM382.67 27.4232C381.802 27.7979 381.054 27.9384 380.379 27.9384C380.137 27.9384 379.293 27.9384 379.293 26.9081C379.293 26.0651 380.137 24.9879 381.223 24.9879C382.429 24.9879 382.695 25.7841 382.695 26.9549C382.695 27.0954 382.695 27.2827 382.67 27.4232Z" fill="black"/>
<path d="M399.618 33.6524C399.618 33.5822 399.618 33.5353 399.208 33.1373C396.795 30.7722 395.444 26.9086 395.444 22.1317C395.444 17.5889 396.578 13.6784 399.376 10.9153C399.618 10.7046 399.618 10.6577 399.618 10.5875C399.618 10.447 399.497 10.4001 399.401 10.4001C399.087 10.4001 397.109 12.0861 395.927 14.3809C394.696 16.7459 394.142 19.2515 394.142 22.1317C394.142 24.2157 394.479 27.0022 395.734 29.5078C397.157 32.3177 399.135 33.8398 399.401 33.8398C399.497 33.8398 399.618 33.7929 399.618 33.6524Z" fill="black"/>
<path d="M406.463 23.2788C406.873 23.349 407.525 23.4895 407.669 23.513C407.983 23.6066 409.069 23.9813 409.069 25.1053C409.069 25.8312 408.393 27.7279 405.595 27.7279C405.088 27.7279 403.279 27.6576 402.796 26.3697C403.761 26.4868 404.244 25.7609 404.244 25.2458C404.244 24.754 403.906 24.4964 403.424 24.4964C402.893 24.4964 402.193 24.8945 402.193 25.9482C402.193 27.3298 403.641 28.1962 405.571 28.1962C409.238 28.1962 410.323 25.5736 410.323 24.3559C410.323 24.0047 410.323 23.349 409.551 22.5997C408.948 22.0377 408.369 21.9207 407.066 21.6631C406.415 21.5226 405.378 21.3118 405.378 20.2581C405.378 19.7898 405.812 18.1038 408.104 18.1038C409.117 18.1038 410.106 18.4785 410.347 19.3215C409.286 19.3215 409.238 20.2113 409.238 20.2347C409.238 20.7264 409.696 20.8669 409.913 20.8669C410.251 20.8669 410.926 20.6094 410.926 19.6259C410.926 18.6424 410.009 17.6355 408.128 17.6355C404.968 17.6355 404.123 20.0474 404.123 21.0074C404.123 22.7871 405.908 23.1617 406.463 23.2788Z" fill="black"/>
<path d="M415.644 25.2614H417.22C417.526 25.2614 417.719 25.2614 417.719 24.9648C417.719 24.7463 417.509 24.7463 417.236 24.7463H415.773L416.352 22.5295C416.416 22.2954 416.416 22.2173 416.416 22.2017C416.416 21.8739 416.159 21.7178 415.885 21.7178C415.338 21.7178 415.226 22.1393 415.049 22.8418L414.55 24.7463H413.006C412.701 24.7463 412.492 24.7463 412.492 25.0429C412.492 25.2614 412.701 25.2614 412.974 25.2614H414.422L413.457 29.008C413.36 29.3983 413.215 29.9447 413.215 30.1632C413.215 31.0999 414.003 31.6306 414.856 31.6306C416.577 31.6306 417.558 29.4295 417.558 29.2422C417.558 29.0705 417.413 29.0392 417.316 29.0392C417.14 29.0392 417.123 29.1017 417.011 29.3358C416.689 30.0852 415.885 31.1935 414.904 31.1935C414.566 31.1935 414.373 30.975 414.373 30.4598C414.373 30.1632 414.422 29.9915 414.47 29.7886L415.644 25.2614Z" fill="black"/>
<path d="M425.272 27.9312H430C430.226 27.9312 430.579 27.9312 430.579 27.5721C430.579 27.2131 430.226 27.2131 430 27.2131H425.272V22.6079C425.272 22.3893 425.272 22.0459 424.902 22.0459C424.532 22.0459 424.532 22.3893 424.532 22.6079V27.2131H419.788C419.563 27.2131 419.209 27.2131 419.209 27.5721C419.209 27.9312 419.563 27.9312 419.788 27.9312H424.532V32.5364C424.532 32.7549 424.532 33.0983 424.902 33.0983C425.272 33.0983 425.272 32.7549 425.272 32.5364V27.9312Z" fill="black"/>
<path d="M436.601 21.5304C436.601 21.1089 436.569 21.0933 436.135 21.0933C435.475 21.7177 434.623 22.0924 433.095 22.0924V22.6075C433.529 22.6075 434.398 22.6075 435.33 22.186V30.1944C435.33 30.772 435.282 30.9593 433.754 30.9593H433.191V31.4744C433.851 31.4276 435.234 31.4276 435.958 31.4276C436.681 31.4276 438.081 31.4276 438.74 31.4744V30.9593H438.177C436.649 30.9593 436.601 30.772 436.601 30.1944V21.5304Z" fill="black"/>
<path d="M445.804 28.0557C445.804 26.6976 445.346 25.6907 444.357 25.6907C443.585 25.6907 443.199 26.2995 443.199 26.8147C443.199 27.3298 443.561 27.962 444.381 27.962C444.695 27.962 444.96 27.8684 445.177 27.6576C445.225 27.6108 445.249 27.6108 445.274 27.6108C445.322 27.6108 445.322 27.9386 445.322 28.0557C445.322 28.8284 445.177 30.3505 443.778 31.8725C443.513 32.1535 443.513 32.2004 443.513 32.2472C443.513 32.3643 443.633 32.4814 443.754 32.4814C443.947 32.4814 445.804 30.7486 445.804 28.0557Z" fill="black"/>
<path d="M458.944 25.1755C458.823 25.5736 458.823 25.6204 458.485 26.0653C457.954 26.721 456.893 27.7279 455.759 27.7279C454.77 27.7279 454.215 26.8615 454.215 25.4799C454.215 24.192 454.963 21.5694 455.421 20.5859C456.242 18.9468 457.375 18.1038 458.316 18.1038C459.908 18.1038 460.222 20.0239 460.222 20.2113C460.222 20.2347 460.15 20.5391 460.126 20.5859L458.944 25.1755ZM460.487 19.181C460.222 18.5721 459.571 17.6355 458.316 17.6355C455.59 17.6355 452.647 21.0543 452.647 24.5199C452.647 26.8381 454.046 28.1962 455.687 28.1962C457.014 28.1962 458.147 27.1893 458.823 26.4166C459.064 27.7981 460.198 28.1962 460.922 28.1962C461.645 28.1962 462.224 27.7747 462.659 26.9317C463.045 26.1356 463.382 24.7072 463.382 24.6135C463.382 24.4964 463.286 24.4028 463.141 24.4028C462.924 24.4028 462.9 24.5199 462.803 24.8711C462.441 26.2527 461.983 27.7279 460.994 27.7279C460.294 27.7279 460.246 27.1191 460.246 26.6507C460.246 26.1122 460.319 25.8546 460.536 24.9413C460.705 24.3559 460.825 23.8408 461.018 23.1617C461.911 19.6493 462.128 18.8063 462.128 18.6658C462.128 18.338 461.863 18.0804 461.501 18.0804C460.729 18.0804 460.536 18.9 460.487 19.181Z" fill="black"/>
<path d="M470.884 22.1317C470.884 20.352 470.643 17.4484 469.292 14.7321C467.869 11.9222 465.891 10.4001 465.625 10.4001C465.529 10.4001 465.408 10.447 465.408 10.5875C465.408 10.6577 465.408 10.7046 465.818 11.1026C468.231 13.4677 469.582 17.3313 469.582 22.1082C469.582 26.651 468.448 30.5615 465.649 33.3246C465.408 33.5353 465.408 33.5822 465.408 33.6524C465.408 33.7929 465.529 33.8398 465.625 33.8398C465.939 33.8398 467.917 32.1538 469.099 29.859C470.329 27.4705 470.884 24.9416 470.884 22.1317Z" fill="black"/>
</svg>
