<svg width="500" height="52" viewBox="0 0 500 52" fill="none" xmlns="http://www.w3.org/2000/svg">
<path d="M0 0H500V52H0V0Z" fill="white"/>
<path d="M44.2965 31.2881C47.7238 29.6724 50.2742 25.4106 50.2742 21.1723C50.2742 17.3086 48.1223 14.9436 45.3327 14.9436C41.0686 14.9436 36.7646 20.3293 36.7646 25.7385C36.7646 29.4148 38.8369 31.9203 41.7261 31.9203C42.4036 31.9203 43.0612 31.8033 43.6988 31.5691C43.5792 32.9741 43.5792 33.0911 43.5792 33.5361C43.5792 34.2151 43.5792 35.9713 45.1733 35.9713C47.5444 35.9713 48.4212 31.5925 48.4212 31.452C48.4212 31.3115 48.3415 31.2179 48.2418 31.2179C48.1223 31.2179 48.0824 31.3349 48.0226 31.5925C47.5843 33.0677 46.5481 33.9107 45.6714 33.9107C44.6552 33.9107 44.3962 33.0911 44.2965 31.2881ZM40.7099 31.171C39.1358 30.5388 38.3786 28.5952 38.3786 26.441C38.3786 24.8018 38.8967 21.6875 40.2118 19.3224C41.6863 16.653 43.6589 15.4588 45.2131 15.4588C47.2854 15.4588 48.6802 17.4257 48.6802 20.4698C48.6802 22.2026 47.9828 28.0098 44.2368 30.5856C44.1371 29.3914 43.8582 27.9864 42.5431 27.9864C41.4671 27.9864 40.5505 29.2509 40.5505 30.3983C40.5505 30.6559 40.6302 31.0071 40.7099 31.171ZM43.7386 30.89C43.0213 31.2647 42.4036 31.4052 41.8457 31.4052C41.6464 31.4052 40.949 31.4052 40.949 30.3749C40.949 29.5319 41.6464 28.4547 42.5431 28.4547C43.5394 28.4547 43.7586 29.2509 43.7586 30.4217C43.7586 30.5622 43.7586 30.7495 43.7386 30.89Z" fill="black"/>
<path d="M57.7365 37.119C57.7365 37.0487 57.7365 37.0019 57.3978 36.6038C55.4052 34.2388 54.2894 30.3751 54.2894 25.5982C54.2894 21.0555 55.2259 17.145 57.5372 14.3819C57.7365 14.1711 57.7365 14.1243 57.7365 14.054C57.7365 13.9135 57.6369 13.8667 57.5572 13.8667C57.2981 13.8667 55.6642 15.5527 54.6879 17.8475C53.6717 20.2125 53.2134 22.718 53.2134 25.5982C53.2134 27.6823 53.4923 30.4688 54.5285 32.9743C55.7041 35.7843 57.338 37.3063 57.5572 37.3063C57.6369 37.3063 57.7365 37.2595 57.7365 37.119Z" fill="black"/>
<path d="M63.3909 26.7454C63.7296 26.8156 64.2676 26.9561 64.3871 26.9795C64.6462 27.0732 65.5428 27.4478 65.5428 28.5718C65.5428 29.2977 64.9849 31.1944 62.6735 31.1944C62.2551 31.1944 60.7607 31.1242 60.3622 29.8363C61.1592 29.9534 61.5577 29.2275 61.5577 28.7123C61.5577 28.2206 61.2787 27.963 60.8802 27.963C60.4419 27.963 59.864 28.3611 59.864 29.4148C59.864 30.7964 61.0596 31.6628 62.6536 31.6628C65.6823 31.6628 66.579 29.0401 66.579 27.8225C66.579 27.4713 66.579 26.8156 65.9413 26.0663C65.4432 25.5043 64.965 25.3872 63.889 25.1296C63.351 24.9891 62.4942 24.7784 62.4942 23.7247C62.4942 23.2563 62.8529 21.5704 64.7458 21.5704C65.5827 21.5704 66.3996 21.945 66.5989 22.788C65.7222 22.788 65.6823 23.6778 65.6823 23.7012C65.6823 24.193 66.0609 24.3335 66.2402 24.3335C66.5192 24.3335 67.0771 24.0759 67.0771 23.0924C67.0771 22.1089 66.3199 21.1021 64.7657 21.1021C62.1555 21.1021 61.4581 23.5139 61.4581 24.474C61.4581 26.2536 62.9326 26.6283 63.3909 26.7454Z" fill="black"/>
<path d="M70.974 28.7282H72.2758C72.5282 28.7282 72.6876 28.7282 72.6876 28.4316C72.6876 28.2131 72.5149 28.2131 72.2891 28.2131H71.0803L71.5585 25.9963C71.6116 25.7622 71.6116 25.6841 71.6116 25.6685C71.6116 25.3407 71.3991 25.1846 71.1732 25.1846C70.7216 25.1846 70.6286 25.6061 70.4825 26.3085L70.0707 28.2131H68.7954C68.543 28.2131 68.3704 28.2131 68.3704 28.5097C68.3704 28.7282 68.543 28.7282 68.7689 28.7282H69.9644L69.1674 32.4748C69.0877 32.8651 68.9681 33.4115 68.9681 33.63C68.9681 34.5667 69.619 35.0974 70.3231 35.0974C71.7444 35.0974 72.5547 32.8963 72.5547 32.709C72.5547 32.5373 72.4352 32.506 72.3555 32.506C72.2094 32.506 72.1961 32.5685 72.1031 32.8026C71.8374 33.552 71.1732 34.6603 70.3629 34.6603C70.084 34.6603 69.9246 34.4418 69.9246 33.9266C69.9246 33.63 69.9644 33.4583 70.0043 33.2554L70.974 28.7282Z" fill="black"/>
<path d="M77.8505 31.5223C77.8505 30.1641 77.4719 29.1572 76.6549 29.1572C76.0173 29.1572 75.6985 29.766 75.6985 30.2812C75.6985 30.7964 75.9974 31.4286 76.6748 31.4286C76.9339 31.4286 77.1531 31.3349 77.3324 31.1242C77.3722 31.0774 77.3922 31.0774 77.4121 31.0774C77.4519 31.0774 77.4519 31.4052 77.4519 31.5223C77.4519 32.295 77.3324 33.817 76.1767 35.3391C75.9575 35.6201 75.9575 35.6669 75.9575 35.7138C75.9575 35.8308 76.0571 35.9479 76.1568 35.9479C76.3162 35.9479 77.8505 34.2151 77.8505 31.5223Z" fill="black"/>
<path d="M88.703 28.6421C88.6034 29.0401 88.6034 29.087 88.3244 29.5319C87.8861 30.1875 87.0094 31.1944 86.0728 31.1944C85.2559 31.1944 84.7976 30.328 84.7976 28.9465C84.7976 27.6586 85.4153 25.036 85.7939 24.0525C86.4714 22.4134 87.4079 21.5704 88.185 21.5704C89.5001 21.5704 89.7591 23.4905 89.7591 23.6778C89.7591 23.7012 89.6993 24.0057 89.6794 24.0525L88.703 28.6421ZM89.9783 22.6475C89.7591 22.0387 89.2211 21.1021 88.185 21.1021C85.9334 21.1021 83.5024 24.5208 83.5024 27.9864C83.5024 30.3046 84.6581 31.6628 86.0131 31.6628C87.109 31.6628 88.0455 30.6559 88.6034 29.8831C88.8027 31.2647 89.7392 31.6628 90.3369 31.6628C90.9347 31.6628 91.4129 31.2413 91.7716 30.3983C92.0904 29.6021 92.3694 28.1737 92.3694 28.0801C92.3694 27.963 92.2897 27.8693 92.1701 27.8693C91.9908 27.8693 91.9708 27.9864 91.8911 28.3377C91.5923 29.7192 91.2137 31.1944 90.3967 31.1944C89.8189 31.1944 89.779 30.5856 89.779 30.1173C89.779 29.5787 89.8388 29.3211 90.0181 28.4079C90.1576 27.8225 90.2572 27.3073 90.4166 26.6283C91.1539 23.1158 91.3332 22.2729 91.3332 22.1324C91.3332 21.8045 91.114 21.547 90.8152 21.547C90.1775 21.547 90.0181 22.3665 89.9783 22.6475Z" fill="black"/>
<path d="M95.8832 28.7282H97.185C97.4374 28.7282 97.5968 28.7282 97.5968 28.4316C97.5968 28.2131 97.4241 28.2131 97.1983 28.2131H95.9894L96.4676 25.9963C96.5208 25.7622 96.5208 25.6841 96.5208 25.6685C96.5208 25.3407 96.3082 25.1846 96.0824 25.1846C95.6308 25.1846 95.5378 25.6061 95.3917 26.3085L94.9799 28.2131H93.7046C93.4522 28.2131 93.2795 28.2131 93.2795 28.5097C93.2795 28.7282 93.4522 28.7282 93.6781 28.7282H94.8736L94.0766 32.4748C93.9969 32.8651 93.8773 33.4115 93.8773 33.63C93.8773 34.5667 94.5282 35.0974 95.2323 35.0974C96.6536 35.0974 97.4639 32.8963 97.4639 32.709C97.4639 32.5373 97.3444 32.506 97.2647 32.506C97.1185 32.506 97.1053 32.5685 97.0123 32.8026C96.7466 33.552 96.0824 34.6603 95.2721 34.6603C94.9931 34.6603 94.8337 34.4418 94.8337 33.9266C94.8337 33.63 94.8736 33.4583 94.9134 33.2554L95.8832 28.7282Z" fill="black"/>
<path d="M104.493 25.5982C104.493 23.8186 104.294 20.915 103.178 18.1987C102.003 15.3888 100.369 13.8667 100.15 13.8667C100.07 13.8667 99.9702 13.9135 99.9702 14.054C99.9702 14.1243 99.9702 14.1711 100.309 14.5692C102.302 16.9342 103.417 20.7979 103.417 25.5748C103.417 30.1175 102.481 34.028 100.169 36.7911C99.9702 37.0019 99.9702 37.0487 99.9702 37.119C99.9702 37.2595 100.07 37.3063 100.15 37.3063C100.409 37.3063 102.042 35.6203 103.019 33.3256C104.035 30.9371 104.493 28.4082 104.493 25.5982Z" fill="black"/>
<path d="M115.663 22.4606C115.663 21.8284 115.205 21.3367 114.707 21.3367C114.129 21.3367 113.73 21.8752 113.73 22.4606C113.73 23.1631 114.229 23.608 114.687 23.608C115.225 23.608 115.663 23.1163 115.663 22.4606ZM115.663 30.2817C115.663 29.6494 115.205 29.1577 114.707 29.1577C114.129 29.1577 113.73 29.6962 113.73 30.2817C113.73 30.9841 114.229 31.429 114.687 31.429C115.225 31.429 115.663 30.9373 115.663 30.2817Z" fill="black"/>
<path d="M130.866 23.842C131.145 23.842 131.504 23.842 131.504 23.4205C131.504 22.9756 131.165 22.9756 130.866 22.9756H119.13C118.851 22.9756 118.492 22.9756 118.492 23.3971C118.492 23.842 118.831 23.842 119.13 23.842H130.866ZM130.866 28.1974C131.145 28.1974 131.504 28.1974 131.504 27.7759C131.504 27.331 131.165 27.331 130.866 27.331H119.13C118.851 27.331 118.492 27.331 118.492 27.7525C118.492 28.1974 118.831 28.1974 119.13 28.1974H130.866Z" fill="black"/>
<path d="M146.614 31.2881C150.041 29.6724 152.592 25.4106 152.592 21.1723C152.592 17.3086 150.44 14.9436 147.65 14.9436C143.386 14.9436 139.082 20.3293 139.082 25.7385C139.082 29.4148 141.155 31.9203 144.044 31.9203C144.721 31.9203 145.379 31.8033 146.016 31.5691C145.897 32.9741 145.897 33.0911 145.897 33.5361C145.897 34.2151 145.897 35.9713 147.491 35.9713C149.862 35.9713 150.739 31.5925 150.739 31.452C150.739 31.3115 150.659 31.2179 150.559 31.2179C150.44 31.2179 150.4 31.3349 150.34 31.5925C149.902 33.0677 148.866 33.9107 147.989 33.9107C146.973 33.9107 146.714 33.0911 146.614 31.2881ZM143.028 31.171C141.453 30.5388 140.696 28.5952 140.696 26.441C140.696 24.8018 141.214 21.6875 142.529 19.3224C144.004 16.653 145.977 15.4588 147.531 15.4588C149.603 15.4588 150.998 17.4257 150.998 20.4698C150.998 22.2026 150.3 28.0098 146.554 30.5856C146.455 29.3914 146.176 27.9864 144.861 27.9864C143.785 27.9864 142.868 29.2509 142.868 30.3983C142.868 30.6559 142.948 31.0071 143.028 31.171ZM146.056 30.89C145.339 31.2647 144.721 31.4052 144.163 31.4052C143.964 31.4052 143.267 31.4052 143.267 30.3749C143.267 29.5319 143.964 28.4547 144.861 28.4547C145.857 28.4547 146.076 29.2509 146.076 30.4217C146.076 30.5622 146.076 30.7495 146.056 30.89Z" fill="black"/>
<path d="M160.054 37.119C160.054 37.0487 160.054 37.0019 159.715 36.6038C157.723 34.2388 156.607 30.3751 156.607 25.5982C156.607 21.0555 157.543 17.145 159.855 14.3819C160.054 14.1711 160.054 14.1243 160.054 14.054C160.054 13.9135 159.955 13.8667 159.875 13.8667C159.616 13.8667 157.982 15.5527 157.006 17.8475C155.989 20.2125 155.531 22.718 155.531 25.5982C155.531 27.6823 155.81 30.4688 156.846 32.9743C158.022 35.7843 159.656 37.3063 159.875 37.3063C159.955 37.3063 160.054 37.2595 160.054 37.119Z" fill="black"/>
<path d="M165.708 26.7454C166.047 26.8156 166.585 26.9561 166.705 26.9795C166.964 27.0732 167.86 27.4478 167.86 28.5718C167.86 29.2977 167.303 31.1944 164.991 31.1944C164.573 31.1944 163.078 31.1242 162.68 29.8363C163.477 29.9534 163.875 29.2275 163.875 28.7123C163.875 28.2206 163.596 27.963 163.198 27.963C162.759 27.963 162.182 28.3611 162.182 29.4148C162.182 30.7964 163.377 31.6628 164.971 31.6628C168 31.6628 168.897 29.0401 168.897 27.8225C168.897 27.4713 168.897 26.8156 168.259 26.0663C167.761 25.5043 167.283 25.3872 166.207 25.1296C165.669 24.9891 164.812 24.7784 164.812 23.7247C164.812 23.2563 165.17 21.5704 167.063 21.5704C167.9 21.5704 168.717 21.945 168.917 22.788C168.04 22.788 168 23.6778 168 23.7012C168 24.193 168.379 24.3335 168.558 24.3335C168.837 24.3335 169.395 24.0759 169.395 23.0924C169.395 22.1089 168.638 21.1021 167.083 21.1021C164.473 21.1021 163.776 23.5139 163.776 24.474C163.776 26.2536 165.25 26.6283 165.708 26.7454Z" fill="black"/>
<path d="M173.291 28.7282H174.593C174.846 28.7282 175.005 28.7282 175.005 28.4316C175.005 28.2131 174.832 28.2131 174.606 28.2131H173.398L173.876 25.9963C173.929 25.7622 173.929 25.6841 173.929 25.6685C173.929 25.3407 173.716 25.1846 173.491 25.1846C173.039 25.1846 172.946 25.6061 172.8 26.3085L172.388 28.2131H171.113C170.86 28.2131 170.688 28.2131 170.688 28.5097C170.688 28.7282 170.86 28.7282 171.086 28.7282H172.282L171.485 32.4748C171.405 32.8651 171.286 33.4115 171.286 33.63C171.286 34.5667 171.936 35.0974 172.64 35.0974C174.062 35.0974 174.872 32.8963 174.872 32.709C174.872 32.5373 174.753 32.506 174.673 32.506C174.527 32.506 174.513 32.5685 174.42 32.8026C174.155 33.552 173.491 34.6603 172.68 34.6603C172.401 34.6603 172.242 34.4418 172.242 33.9266C172.242 33.63 172.282 33.4583 172.322 33.2554L173.291 28.7282Z" fill="black"/>
<path d="M180.168 31.5223C180.168 30.1641 179.789 29.1572 178.972 29.1572C178.335 29.1572 178.016 29.766 178.016 30.2812C178.016 30.7964 178.315 31.4286 178.992 31.4286C179.251 31.4286 179.47 31.3349 179.65 31.1242C179.69 31.0774 179.71 31.0774 179.729 31.0774C179.769 31.0774 179.769 31.4052 179.769 31.5223C179.769 32.295 179.65 33.817 178.494 35.3391C178.275 35.6201 178.275 35.6669 178.275 35.7138C178.275 35.8308 178.375 35.9479 178.474 35.9479C178.634 35.9479 180.168 34.2151 180.168 31.5223Z" fill="black"/>
<path d="M191.021 28.6421C190.921 29.0401 190.921 29.087 190.642 29.5319C190.204 30.1875 189.327 31.1944 188.39 31.1944C187.574 31.1944 187.115 30.328 187.115 28.9465C187.115 27.6586 187.733 25.036 188.112 24.0525C188.789 22.4134 189.725 21.5704 190.503 21.5704C191.818 21.5704 192.077 23.4905 192.077 23.6778C192.077 23.7012 192.017 24.0057 191.997 24.0525L191.021 28.6421ZM192.296 22.6475C192.077 22.0387 191.539 21.1021 190.503 21.1021C188.251 21.1021 185.82 24.5208 185.82 27.9864C185.82 30.3046 186.976 31.6628 188.331 31.6628C189.427 31.6628 190.363 30.6559 190.921 29.8831C191.12 31.2647 192.057 31.6628 192.655 31.6628C193.252 31.6628 193.731 31.2413 194.089 30.3983C194.408 29.6021 194.687 28.1737 194.687 28.0801C194.687 27.963 194.607 27.8693 194.488 27.8693C194.308 27.8693 194.288 27.9864 194.209 28.3377C193.91 29.7192 193.531 31.1944 192.714 31.1944C192.137 31.1944 192.097 30.5856 192.097 30.1173C192.097 29.5787 192.156 29.3211 192.336 28.4079C192.475 27.8225 192.575 27.3073 192.734 26.6283C193.472 23.1158 193.651 22.2729 193.651 22.1324C193.651 21.8045 193.432 21.547 193.133 21.547C192.495 21.547 192.336 22.3665 192.296 22.6475Z" fill="black"/>
<path d="M198.201 28.7282H199.502C199.755 28.7282 199.914 28.7282 199.914 28.4316C199.914 28.2131 199.741 28.2131 199.516 28.2131H198.307L198.785 25.9963C198.838 25.7622 198.838 25.6841 198.838 25.6685C198.838 25.3407 198.626 25.1846 198.4 25.1846C197.948 25.1846 197.855 25.6061 197.709 26.3085L197.297 28.2131H196.022C195.77 28.2131 195.597 28.2131 195.597 28.5097C195.597 28.7282 195.77 28.7282 195.995 28.7282H197.191L196.394 32.4748C196.314 32.8651 196.195 33.4115 196.195 33.63C196.195 34.5667 196.846 35.0974 197.55 35.0974C198.971 35.0974 199.781 32.8963 199.781 32.709C199.781 32.5373 199.662 32.506 199.582 32.506C199.436 32.506 199.423 32.5685 199.33 32.8026C199.064 33.552 198.4 34.6603 197.589 34.6603C197.311 34.6603 197.151 34.4418 197.151 33.9266C197.151 33.63 197.191 33.4583 197.231 33.2554L198.201 28.7282Z" fill="black"/>
<path d="M206.811 25.5982C206.811 23.8186 206.612 20.915 205.496 18.1987C204.32 15.3888 202.686 13.8667 202.467 13.8667C202.387 13.8667 202.288 13.9135 202.288 14.054C202.288 14.1243 202.288 14.1711 202.627 14.5692C204.619 16.9342 205.735 20.7979 205.735 25.5748C205.735 30.1175 204.798 34.028 202.487 36.7911C202.288 37.0019 202.288 37.0487 202.288 37.119C202.288 37.2595 202.387 37.3063 202.467 37.3063C202.726 37.3063 204.36 35.6203 205.336 33.3256C206.353 30.9371 206.811 28.4082 206.811 25.5982Z" fill="black"/>
<path d="M221.157 26.0195H226.657C226.936 26.0195 227.294 26.0195 227.294 25.598C227.294 25.1531 226.956 25.1531 226.657 25.1531H221.157V18.6902C221.157 18.3624 221.157 17.9409 220.799 17.9409C220.42 17.9409 220.42 18.339 220.42 18.6902V25.1531H214.921C214.642 25.1531 214.283 25.1531 214.283 25.5746C214.283 26.0195 214.622 26.0195 214.921 26.0195H220.42V32.4824C220.42 32.8102 220.42 33.2317 220.779 33.2317C221.157 33.2317 221.157 32.8336 221.157 32.4824V26.0195Z" fill="black"/>
<path d="M242.035 25.5043C242.035 23.2329 240.939 21.1021 238.827 21.1021C236.217 21.1021 233.607 24.4506 233.607 27.7757C233.607 29.8129 234.683 31.6628 236.715 31.6628C237.95 31.6628 239.425 31.1008 240.84 29.6958C241.119 31.0071 241.736 31.6628 242.593 31.6628C243.669 31.6628 244.207 30.3514 244.207 30.047C244.207 29.8363 244.068 29.8363 244.008 29.8363C243.848 29.8363 243.829 29.9065 243.769 30.0939C243.589 30.6793 243.131 31.1944 242.653 31.1944C242.035 31.1944 242.035 29.6958 242.035 28.2674C244.068 25.4106 244.546 22.4602 244.546 22.4368C244.546 22.226 244.386 22.226 244.327 22.226C244.147 22.226 244.127 22.2963 244.048 22.7178C243.789 23.7481 243.271 25.5745 242.035 27.4947V25.5043ZM240.78 29.1338C239.026 30.9837 237.452 31.1944 236.755 31.1944C235.34 31.1944 234.942 29.7192 234.942 28.6186C234.942 27.6118 235.38 25.2233 235.998 23.9354C236.815 22.2963 237.931 21.5704 238.827 21.5704C240.76 21.5704 240.76 24.5442 240.76 26.5112C240.76 27.0966 240.74 27.7054 240.74 28.2908C240.74 28.7591 240.76 28.8762 240.78 29.1338Z" fill="black"/>
<path d="M251.822 37.119C251.822 37.0487 251.822 37.0019 251.483 36.6038C249.491 34.2388 248.375 30.3751 248.375 25.5982C248.375 21.0555 249.312 17.145 251.623 14.3819C251.822 14.1711 251.822 14.1243 251.822 14.054C251.822 13.9135 251.723 13.8667 251.643 13.8667C251.384 13.8667 249.75 15.5527 248.774 17.8475C247.757 20.2125 247.299 22.718 247.299 25.5982C247.299 27.6823 247.578 30.4688 248.614 32.9743C249.79 35.7843 251.424 37.3063 251.643 37.3063C251.723 37.3063 251.822 37.2595 251.822 37.119Z" fill="black"/>
<path d="M261.422 31.2881C264.849 29.6724 267.399 25.4106 267.399 21.1723C267.399 17.3086 265.248 14.9436 262.458 14.9436C258.194 14.9436 253.89 20.3293 253.89 25.7385C253.89 29.4148 255.962 31.9203 258.851 31.9203C259.529 31.9203 260.186 31.8033 260.824 31.5691C260.704 32.9741 260.704 33.0911 260.704 33.5361C260.704 34.2151 260.704 35.9713 262.299 35.9713C264.67 35.9713 265.546 31.5925 265.546 31.452C265.546 31.3115 265.467 31.2179 265.367 31.2179C265.248 31.2179 265.208 31.3349 265.148 31.5925C264.71 33.0677 263.673 33.9107 262.797 33.9107C261.78 33.9107 261.521 33.0911 261.422 31.2881ZM257.835 31.171C256.261 30.5388 255.504 28.5952 255.504 26.441C255.504 24.8018 256.022 21.6875 257.337 19.3224C258.812 16.653 260.784 15.4588 262.338 15.4588C264.411 15.4588 265.805 17.4257 265.805 20.4698C265.805 22.2026 265.108 28.0098 261.362 30.5856C261.262 29.3914 260.983 27.9864 259.668 27.9864C258.592 27.9864 257.676 29.2509 257.676 30.3983C257.676 30.6559 257.755 31.0071 257.835 31.171ZM260.864 30.89C260.147 31.2647 259.529 31.4052 258.971 31.4052C258.772 31.4052 258.074 31.4052 258.074 30.3749C258.074 29.5319 258.772 28.4547 259.668 28.4547C260.665 28.4547 260.884 29.2509 260.884 30.4217C260.884 30.5622 260.884 30.7495 260.864 30.89Z" fill="black"/>
<path d="M271.321 28.7282H272.623C272.875 28.7282 273.035 28.7282 273.035 28.4316C273.035 28.2131 272.862 28.2131 272.636 28.2131H271.427L271.906 25.9963C271.959 25.7622 271.959 25.6841 271.959 25.6685C271.959 25.3407 271.746 25.1846 271.52 25.1846C271.069 25.1846 270.976 25.6061 270.83 26.3085L270.418 28.2131H269.143C268.89 28.2131 268.718 28.2131 268.718 28.5097C268.718 28.7282 268.89 28.7282 269.116 28.7282H270.312L269.515 32.4748C269.435 32.8651 269.315 33.4115 269.315 33.63C269.315 34.5667 269.966 35.0974 270.67 35.0974C272.092 35.0974 272.902 32.8963 272.902 32.709C272.902 32.5373 272.782 32.506 272.703 32.506C272.557 32.506 272.543 32.5685 272.45 32.8026C272.185 33.552 271.52 34.6603 270.71 34.6603C270.431 34.6603 270.272 34.4418 270.272 33.9266C270.272 33.63 270.312 33.4583 270.351 33.2554L271.321 28.7282Z" fill="black"/>
<path d="M278.69 28.9938C278.57 28.7284 278.185 28.0571 277.375 28.0571C275.794 28.0571 274.054 30.227 274.054 32.5374C274.054 34.1609 274.944 35.0976 275.967 35.0976C276.817 35.0976 277.547 34.3014 277.786 33.9892C278.026 35.0664 278.929 35.0976 279.088 35.0976C279.699 35.0976 280.005 34.5044 280.111 34.239C280.377 33.677 280.563 32.7716 280.563 32.7091C280.563 32.6155 280.51 32.5062 280.35 32.5062C280.191 32.5062 280.164 32.5999 280.085 32.9901C279.899 33.8487 279.646 34.6605 279.128 34.6605C278.823 34.6605 278.703 34.3639 278.703 33.9268C278.703 33.6614 278.823 33.1306 278.902 32.7404C278.982 32.3501 279.181 31.4134 279.234 31.1325L279.5 29.946C279.566 29.5714 279.713 28.9157 279.713 28.8377C279.713 28.4786 279.46 28.3537 279.288 28.3537C279.088 28.3537 278.756 28.5098 278.69 28.9938ZM277.786 33.2555C277.122 34.3327 276.432 34.6605 276.006 34.6605C275.395 34.6605 275.09 34.0048 275.09 33.1931C275.09 32.4594 275.449 30.789 275.741 30.1021C276.126 29.1499 276.777 28.4942 277.388 28.4942C278.251 28.4942 278.504 29.6338 278.504 29.8211C278.504 29.8836 278.172 31.4134 278.092 31.8193C277.919 32.553 277.919 32.5843 277.786 33.2555Z" fill="black"/>
<path d="M283.543 32.7872C283.69 32.1159 283.836 31.4447 283.969 30.7578C283.982 30.7266 284.075 30.2739 284.088 30.1958C284.128 30.0553 284.46 29.4153 284.805 29.025C285.23 28.5723 285.682 28.4942 285.921 28.4942C286.067 28.4942 286.306 28.5098 286.492 28.6972C285.921 28.8377 285.842 29.4153 285.842 29.5558C285.842 29.8992 286.067 30.1334 286.36 30.1334C286.718 30.1334 287.117 29.7899 287.117 29.1655C287.117 28.6035 286.705 28.0571 285.948 28.0571C285.044 28.0571 284.433 28.7596 284.154 29.1811C283.889 28.0571 282.986 28.0571 282.853 28.0571C282.374 28.0571 282.042 28.4162 281.83 28.9001C281.524 29.6026 281.378 30.3987 281.378 30.4456C281.378 30.5861 281.471 30.6485 281.577 30.6485C281.75 30.6485 281.763 30.5861 281.856 30.1802C282.016 29.4153 282.255 28.4942 282.813 28.4942C283.158 28.4942 283.238 28.8845 283.238 29.2279C283.238 29.5089 283.171 29.8055 283.065 30.3207C283.039 30.4456 282.839 31.3666 282.786 31.5852L282.295 33.9268C282.242 34.1609 282.162 34.5512 282.162 34.6137C282.162 34.9727 282.414 35.0976 282.587 35.0976C283.052 35.0976 283.145 34.6605 283.251 34.1297L283.543 32.7872Z" fill="black"/>
<path d="M294.329 29.1811C294.382 28.9469 294.382 28.8533 294.382 28.8377C294.382 28.4786 294.13 28.3537 293.957 28.3537C293.652 28.3537 293.413 28.6347 293.36 28.9626C293.253 28.7284 292.855 28.0571 292.058 28.0571C290.477 28.0571 288.75 30.1334 288.75 32.4125C288.75 34.0985 289.693 34.9415 290.676 34.9415C291.287 34.9415 291.832 34.5512 292.27 34.0985L291.978 35.5035C291.832 36.1591 291.739 36.6118 291.221 37.127C290.663 37.689 290.158 37.689 289.826 37.689C289.494 37.689 289.175 37.6734 288.856 37.5953C289.149 37.408 289.281 37.0802 289.281 36.8148C289.281 36.4401 289.042 36.2372 288.763 36.2372C288.431 36.2372 288.02 36.5494 288.02 37.1738C288.02 38.0636 289.056 38.1261 289.853 38.1261C291.739 38.1261 292.682 36.9397 292.881 35.9874L294.329 29.1811ZM292.536 32.8809C292.443 33.318 292.151 33.6302 291.872 33.9268C291.752 34.0361 291.247 34.5044 290.703 34.5044C290.172 34.5044 289.786 33.9892 289.786 33.0526C289.786 32.3969 290.118 30.6954 290.477 29.8992C290.902 29.0094 291.526 28.4942 292.058 28.4942C292.948 28.4942 293.187 29.6494 293.187 29.7899L293.147 30.0085L292.536 32.8809Z" fill="black"/>
<path d="M297.604 31.3822C297.896 31.3822 298.892 31.3666 299.596 31.07C300.752 30.6017 300.792 29.665 300.792 29.4309C300.792 28.5567 300.088 28.0571 299.224 28.0571C297.723 28.0571 295.585 29.4465 295.585 32.2096C295.585 33.8019 296.408 35.0976 297.87 35.0976C299.942 35.0976 301.058 33.5365 301.058 33.318C301.058 33.1775 300.925 33.0682 300.845 33.0682C300.765 33.0682 300.726 33.115 300.659 33.2087C299.61 34.6605 298.122 34.6605 297.896 34.6605C296.926 34.6605 296.634 33.6926 296.634 32.8184C296.634 32.3501 296.754 31.6476 296.807 31.3822H297.604ZM296.913 30.9451C297.338 29.0406 298.547 28.4942 299.224 28.4942C299.756 28.4942 300.261 28.8064 300.261 29.4309C300.261 30.9451 298.082 30.9451 297.524 30.9451H296.913Z" fill="black"/>
<path d="M304.417 28.7282H305.719C305.971 28.7282 306.13 28.7282 306.13 28.4316C306.13 28.2131 305.958 28.2131 305.732 28.2131H304.523L305.001 25.9963C305.054 25.7622 305.054 25.6841 305.054 25.6685C305.054 25.3407 304.842 25.1846 304.616 25.1846C304.164 25.1846 304.071 25.6061 303.925 26.3085L303.514 28.2131H302.238C301.986 28.2131 301.813 28.2131 301.813 28.5097C301.813 28.7282 301.986 28.7282 302.212 28.7282H303.407L302.61 32.4748C302.531 32.8651 302.411 33.4115 302.411 33.63C302.411 34.5667 303.062 35.0974 303.766 35.0974C305.187 35.0974 305.998 32.8963 305.998 32.709C305.998 32.5373 305.878 32.506 305.798 32.506C305.652 32.506 305.639 32.5685 305.546 32.8026C305.28 33.552 304.616 34.6603 303.806 34.6603C303.527 34.6603 303.367 34.4418 303.367 33.9266C303.367 33.63 303.407 33.4583 303.447 33.2554L304.417 28.7282Z" fill="black"/>
<path d="M313.884 37.119C313.884 37.0487 313.884 37.0019 313.545 36.6038C311.552 34.2388 310.437 30.3751 310.437 25.5982C310.437 21.0555 311.373 17.145 313.684 14.3819C313.884 14.1711 313.884 14.1243 313.884 14.054C313.884 13.9135 313.784 13.8667 313.704 13.8667C313.445 13.8667 311.811 15.5527 310.835 17.8475C309.819 20.2125 309.361 22.718 309.361 25.5982C309.361 27.6823 309.64 30.4688 310.676 32.9743C311.851 35.7843 313.485 37.3063 313.704 37.3063C313.784 37.3063 313.884 37.2595 313.884 37.119Z" fill="black"/>
<path d="M319.539 26.7454C319.877 26.8156 320.415 26.9561 320.535 26.9795C320.794 27.0732 321.691 27.4478 321.691 28.5718C321.691 29.2977 321.133 31.1944 318.821 31.1944C318.403 31.1944 316.908 31.1242 316.51 29.8363C317.307 29.9534 317.705 29.2275 317.705 28.7123C317.705 28.2206 317.426 27.963 317.028 27.963C316.59 27.963 316.012 28.3611 316.012 29.4148C316.012 30.7964 317.207 31.6628 318.801 31.6628C321.83 31.6628 322.727 29.0401 322.727 27.8225C322.727 27.4713 322.727 26.8156 322.089 26.0663C321.591 25.5043 321.113 25.3872 320.037 25.1296C319.499 24.9891 318.642 24.7784 318.642 23.7247C318.642 23.2563 319.001 21.5704 320.894 21.5704C321.73 21.5704 322.547 21.945 322.747 22.788C321.87 22.788 321.83 23.6778 321.83 23.7012C321.83 24.193 322.209 24.3335 322.388 24.3335C322.667 24.3335 323.225 24.0759 323.225 23.0924C323.225 22.1089 322.468 21.1021 320.913 21.1021C318.303 21.1021 317.606 23.5139 317.606 24.474C317.606 26.2536 319.08 26.6283 319.539 26.7454Z" fill="black"/>
<path d="M327.121 28.7282H328.423C328.675 28.7282 328.835 28.7282 328.835 28.4316C328.835 28.2131 328.662 28.2131 328.436 28.2131H327.227L327.706 25.9963C327.759 25.7622 327.759 25.6841 327.759 25.6685C327.759 25.3407 327.546 25.1846 327.32 25.1846C326.869 25.1846 326.776 25.6061 326.63 26.3085L326.218 28.2131H324.943C324.69 28.2131 324.518 28.2131 324.518 28.5097C324.518 28.7282 324.69 28.7282 324.916 28.7282H326.112L325.315 32.4748C325.235 32.8651 325.115 33.4115 325.115 33.63C325.115 34.5667 325.766 35.0974 326.47 35.0974C327.892 35.0974 328.702 32.8963 328.702 32.709C328.702 32.5373 328.582 32.506 328.503 32.506C328.357 32.506 328.343 32.5685 328.25 32.8026C327.985 33.552 327.32 34.6603 326.51 34.6603C326.231 34.6603 326.072 34.4418 326.072 33.9266C326.072 33.63 326.112 33.4583 326.151 33.2554L327.121 28.7282Z" fill="black"/>
<path d="M333.998 31.5223C333.998 30.1641 333.62 29.1572 332.803 29.1572C332.165 29.1572 331.846 29.766 331.846 30.2812C331.846 30.7964 332.145 31.4286 332.823 31.4286C333.082 31.4286 333.301 31.3349 333.48 31.1242C333.52 31.0774 333.54 31.0774 333.56 31.0774C333.6 31.0774 333.6 31.4052 333.6 31.5223C333.6 32.295 333.48 33.817 332.325 35.3391C332.105 35.6201 332.105 35.6669 332.105 35.7138C332.105 35.8308 332.205 35.9479 332.305 35.9479C332.464 35.9479 333.998 34.2151 333.998 31.5223Z" fill="black"/>
<path d="M344.851 28.6421C344.751 29.0401 344.751 29.087 344.472 29.5319C344.034 30.1875 343.157 31.1944 342.221 31.1944C341.404 31.1944 340.946 30.328 340.946 28.9465C340.946 27.6586 341.563 25.036 341.942 24.0525C342.619 22.4134 343.556 21.5704 344.333 21.5704C345.648 21.5704 345.907 23.4905 345.907 23.6778C345.907 23.7012 345.847 24.0057 345.827 24.0525L344.851 28.6421ZM346.126 22.6475C345.907 22.0387 345.369 21.1021 344.333 21.1021C342.081 21.1021 339.65 24.5208 339.65 27.9864C339.65 30.3046 340.806 31.6628 342.161 31.6628C343.257 31.6628 344.193 30.6559 344.751 29.8831C344.951 31.2647 345.887 31.6628 346.485 31.6628C347.083 31.6628 347.561 31.2413 347.92 30.3983C348.238 29.6021 348.517 28.1737 348.517 28.0801C348.517 27.963 348.438 27.8693 348.318 27.8693C348.139 27.8693 348.119 27.9864 348.039 28.3377C347.74 29.7192 347.362 31.1944 346.545 31.1944C345.967 31.1944 345.927 30.5856 345.927 30.1173C345.927 29.5787 345.987 29.3211 346.166 28.4079C346.306 27.8225 346.405 27.3073 346.565 26.6283C347.302 23.1158 347.481 22.2729 347.481 22.1324C347.481 21.8045 347.262 21.547 346.963 21.547C346.325 21.547 346.166 22.3665 346.126 22.6475Z" fill="black"/>
<path d="M352.031 28.7282H353.332C353.585 28.7282 353.744 28.7282 353.744 28.4316C353.744 28.2131 353.572 28.2131 353.346 28.2131H352.137L352.615 25.9963C352.668 25.7622 352.668 25.6841 352.668 25.6685C352.668 25.3407 352.456 25.1846 352.23 25.1846C351.778 25.1846 351.685 25.6061 351.539 26.3085L351.127 28.2131H349.852C349.6 28.2131 349.427 28.2131 349.427 28.5097C349.427 28.7282 349.6 28.7282 349.826 28.7282H351.021L350.224 32.4748C350.144 32.8651 350.025 33.4115 350.025 33.63C350.025 34.5667 350.676 35.0974 351.38 35.0974C352.801 35.0974 353.611 32.8963 353.611 32.709C353.611 32.5373 353.492 32.506 353.412 32.506C353.266 32.506 353.253 32.5685 353.16 32.8026C352.894 33.552 352.23 34.6603 351.42 34.6603C351.141 34.6603 350.981 34.4418 350.981 33.9266C350.981 33.63 351.021 33.4583 351.061 33.2554L352.031 28.7282Z" fill="black"/>
<path d="M360.641 25.5982C360.641 23.8186 360.442 20.915 359.326 18.1987C358.15 15.3888 356.516 13.8667 356.297 13.8667C356.217 13.8667 356.118 13.9135 356.118 14.054C356.118 14.1243 356.118 14.1711 356.456 14.5692C358.449 16.9342 359.565 20.7979 359.565 25.5748C359.565 30.1175 358.628 34.028 356.317 36.7911C356.118 37.0019 356.118 37.0487 356.118 37.119C356.118 37.2595 356.217 37.3063 356.297 37.3063C356.556 37.3063 358.19 35.6203 359.166 33.3256C360.183 30.9371 360.641 28.4082 360.641 25.5982Z" fill="black"/>
<path d="M380.168 26.0428C380.507 26.0428 380.865 26.0428 380.865 25.5745C380.865 25.1062 380.507 25.1062 380.168 25.1062H369.388C369.049 25.1062 368.691 25.1062 368.691 25.5745C368.691 26.0428 369.049 26.0428 369.388 26.0428H380.168Z" fill="black"/>
<path d="M395.451 31.2881C398.879 29.6724 401.429 25.4106 401.429 21.1723C401.429 17.3086 399.277 14.9436 396.487 14.9436C392.223 14.9436 387.919 20.3293 387.919 25.7385C387.919 29.4148 389.992 31.9203 392.881 31.9203C393.558 31.9203 394.216 31.8033 394.854 31.5691C394.734 32.9741 394.734 33.0911 394.734 33.5361C394.734 34.2151 394.734 35.9713 396.328 35.9713C398.699 35.9713 399.576 31.5925 399.576 31.452C399.576 31.3115 399.496 31.2179 399.397 31.2179C399.277 31.2179 399.237 31.3349 399.177 31.5925C398.739 33.0677 397.703 33.9107 396.826 33.9107C395.81 33.9107 395.551 33.0911 395.451 31.2881ZM391.865 31.171C390.291 30.5388 389.533 28.5952 389.533 26.441C389.533 24.8018 390.051 21.6875 391.367 19.3224C392.841 16.653 394.814 15.4588 396.368 15.4588C398.44 15.4588 399.835 17.4257 399.835 20.4698C399.835 22.2026 399.138 28.0098 395.392 30.5856C395.292 29.3914 395.013 27.9864 393.698 27.9864C392.622 27.9864 391.705 29.2509 391.705 30.3983C391.705 30.6559 391.785 31.0071 391.865 31.171ZM394.893 30.89C394.176 31.2647 393.558 31.4052 393 31.4052C392.801 31.4052 392.104 31.4052 392.104 30.3749C392.104 29.5319 392.801 28.4547 393.698 28.4547C394.694 28.4547 394.913 29.2509 394.913 30.4217C394.913 30.5622 394.913 30.7495 394.893 30.89Z" fill="black"/>
<path d="M408.891 37.119C408.891 37.0487 408.891 37.0019 408.552 36.6038C406.56 34.2388 405.444 30.3751 405.444 25.5982C405.444 21.0555 406.38 17.145 408.692 14.3819C408.891 14.1711 408.891 14.1243 408.891 14.054C408.891 13.9135 408.791 13.8667 408.712 13.8667C408.453 13.8667 406.819 15.5527 405.842 17.8475C404.826 20.2125 404.368 22.718 404.368 25.5982C404.368 27.6823 404.647 30.4688 405.683 32.9743C406.859 35.7843 408.493 37.3063 408.712 37.3063C408.791 37.3063 408.891 37.2595 408.891 37.119Z" fill="black"/>
<path d="M414.546 26.7454C414.884 26.8156 415.422 26.9561 415.542 26.9795C415.801 27.0732 416.698 27.4478 416.698 28.5718C416.698 29.2977 416.14 31.1944 413.828 31.1944C413.41 31.1944 411.915 31.1242 411.517 29.8363C412.314 29.9534 412.712 29.2275 412.712 28.7123C412.712 28.2206 412.434 27.963 412.035 27.963C411.597 27.963 411.019 28.3611 411.019 29.4148C411.019 30.7964 412.214 31.6628 413.808 31.6628C416.837 31.6628 417.734 29.0401 417.734 27.8225C417.734 27.4713 417.734 26.8156 417.096 26.0663C416.598 25.5043 416.12 25.3872 415.044 25.1296C414.506 24.9891 413.649 24.7784 413.649 23.7247C413.649 23.2563 414.008 21.5704 415.901 21.5704C416.737 21.5704 417.554 21.945 417.754 22.788C416.877 22.788 416.837 23.6778 416.837 23.7012C416.837 24.193 417.216 24.3335 417.395 24.3335C417.674 24.3335 418.232 24.0759 418.232 23.0924C418.232 22.1089 417.475 21.1021 415.921 21.1021C413.31 21.1021 412.613 23.5139 412.613 24.474C412.613 26.2536 414.087 26.6283 414.546 26.7454Z" fill="black"/>
<path d="M422.129 28.7282H423.43C423.683 28.7282 423.842 28.7282 423.842 28.4316C423.842 28.2131 423.669 28.2131 423.444 28.2131H422.235L422.713 25.9963C422.766 25.7622 422.766 25.6841 422.766 25.6685C422.766 25.3407 422.554 25.1846 422.328 25.1846C421.876 25.1846 421.783 25.6061 421.637 26.3085L421.225 28.2131H419.95C419.698 28.2131 419.525 28.2131 419.525 28.5097C419.525 28.7282 419.698 28.7282 419.923 28.7282H421.119L420.322 32.4748C420.242 32.8651 420.123 33.4115 420.123 33.63C420.123 34.5667 420.774 35.0974 421.478 35.0974C422.899 35.0974 423.709 32.8963 423.709 32.709C423.709 32.5373 423.59 32.506 423.51 32.506C423.364 32.506 423.351 32.5685 423.258 32.8026C422.992 33.552 422.328 34.6603 421.517 34.6603C421.239 34.6603 421.079 34.4418 421.079 33.9266C421.079 33.63 421.119 33.4583 421.159 33.2554L422.129 28.7282Z" fill="black"/>
<path d="M429.005 31.5223C429.005 30.1641 428.627 29.1572 427.81 29.1572C427.172 29.1572 426.853 29.766 426.853 30.2812C426.853 30.7964 427.152 31.4286 427.83 31.4286C428.089 31.4286 428.308 31.3349 428.487 31.1242C428.527 31.0774 428.547 31.0774 428.567 31.0774C428.607 31.0774 428.607 31.4052 428.607 31.5223C428.607 32.295 428.487 33.817 427.331 35.3391C427.112 35.6201 427.112 35.6669 427.112 35.7138C427.112 35.8308 427.212 35.9479 427.312 35.9479C427.471 35.9479 429.005 34.2151 429.005 31.5223Z" fill="black"/>
<path d="M439.858 28.6421C439.758 29.0401 439.758 29.087 439.479 29.5319C439.041 30.1875 438.164 31.1944 437.228 31.1944C436.411 31.1944 435.952 30.328 435.952 28.9465C435.952 27.6586 436.57 25.036 436.949 24.0525C437.626 22.4134 438.563 21.5704 439.34 21.5704C440.655 21.5704 440.914 23.4905 440.914 23.6778C440.914 23.7012 440.854 24.0057 440.834 24.0525L439.858 28.6421ZM441.133 22.6475C440.914 22.0387 440.376 21.1021 439.34 21.1021C437.088 21.1021 434.657 24.5208 434.657 27.9864C434.657 30.3046 435.813 31.6628 437.168 31.6628C438.264 31.6628 439.2 30.6559 439.758 29.8831C439.957 31.2647 440.894 31.6628 441.492 31.6628C442.089 31.6628 442.568 31.2413 442.926 30.3983C443.245 29.6021 443.524 28.1737 443.524 28.0801C443.524 27.963 443.444 27.8693 443.325 27.8693C443.146 27.8693 443.126 27.9864 443.046 28.3377C442.747 29.7192 442.368 31.1944 441.552 31.1944C440.974 31.1944 440.934 30.5856 440.934 30.1173C440.934 29.5787 440.994 29.3211 441.173 28.4079C441.312 27.8225 441.412 27.3073 441.571 26.6283C442.309 23.1158 442.488 22.2729 442.488 22.1324C442.488 21.8045 442.269 21.547 441.97 21.547C441.332 21.547 441.173 22.3665 441.133 22.6475Z" fill="black"/>
<path d="M447.037 28.7282H448.339C448.592 28.7282 448.751 28.7282 448.751 28.4316C448.751 28.2131 448.578 28.2131 448.353 28.2131H447.144L447.622 25.9963C447.675 25.7622 447.675 25.6841 447.675 25.6685C447.675 25.3407 447.463 25.1846 447.237 25.1846C446.785 25.1846 446.692 25.6061 446.546 26.3085L446.134 28.2131H444.859C444.607 28.2131 444.434 28.2131 444.434 28.5097C444.434 28.7282 444.607 28.7282 444.832 28.7282H446.028L445.231 32.4748C445.151 32.8651 445.032 33.4115 445.032 33.63C445.032 34.5667 445.683 35.0974 446.387 35.0974C447.808 35.0974 448.618 32.8963 448.618 32.709C448.618 32.5373 448.499 32.506 448.419 32.506C448.273 32.506 448.26 32.5685 448.167 32.8026C447.901 33.552 447.237 34.6603 446.426 34.6603C446.147 34.6603 445.988 34.4418 445.988 33.9266C445.988 33.63 446.028 33.4583 446.068 33.2554L447.037 28.7282Z" fill="black"/>
<path d="M455.648 25.5982C455.648 23.8186 455.449 20.915 454.333 18.1987C453.157 15.3888 451.524 13.8667 451.304 13.8667C451.225 13.8667 451.125 13.9135 451.125 14.054C451.125 14.1243 451.125 14.1711 451.464 14.5692C453.456 16.9342 454.572 20.7979 454.572 25.5748C454.572 30.1175 453.636 34.028 451.324 36.7911C451.125 37.0019 451.125 37.0487 451.125 37.119C451.125 37.2595 451.225 37.3063 451.304 37.3063C451.563 37.3063 453.197 35.6203 454.174 33.3256C455.19 30.9371 455.648 28.4082 455.648 25.5982Z" fill="black"/>
<path d="M463.236 25.5982C463.236 23.8186 463.036 20.915 461.92 18.1987C460.745 15.3888 459.111 13.8667 458.892 13.8667C458.812 13.8667 458.712 13.9135 458.712 14.054C458.712 14.1243 458.712 14.1711 459.051 14.5692C461.044 16.9342 462.16 20.7979 462.16 25.5748C462.16 30.1175 461.223 34.028 458.912 36.7911C458.712 37.0019 458.712 37.0487 458.712 37.119C458.712 37.2595 458.812 37.3063 458.892 37.3063C459.151 37.3063 460.785 35.6203 461.761 33.3256C462.777 30.9371 463.236 28.4082 463.236 25.5982Z" fill="black"/>
</svg>
